<svg width="334" height="278" viewBox="0 0 334 278" fill="none" xmlns="http://www.w3.org/2000/svg">
<path d="M299.568 65.5627L299.567 65.5637L272.369 119.794C272.368 119.794 272.368 119.795 272.368 119.795C271.307 121.885 272.85 124.345 275.193 124.345H329.638H329.661C332.004 124.345 333.547 121.885 332.486 119.795C332.485 119.794 332.485 119.794 332.485 119.794L305.287 65.5637L305.286 65.5627C304.102 63.2285 300.752 63.2285 299.568 65.5627Z" fill="white" fill-opacity="0.1" stroke="white" stroke-width="0.5"/>
<path d="M299.571 212.655L299.572 212.656C300.756 214.99 304.106 214.99 305.29 212.656L305.291 212.655L332.489 158.424C332.489 158.424 332.489 158.424 332.489 158.424C333.551 156.334 332.007 153.874 329.665 153.874H329.642H275.197C272.854 153.874 271.311 156.334 272.372 158.424C272.372 158.424 272.372 158.424 272.372 158.424L299.571 212.655Z" fill="white" fill-opacity="0.1" stroke="white" stroke-width="0.5"/>
<path d="M269.301 52.0681L269.497 51.9345L269.374 51.7318C245.119 11.7832 201.086 -11.25 148.61 -11.25C61.1298 -11.25 0.75 52.8182 0.75 139.387C0.75 225.956 61.131 289.468 148.61 289.491C201.06 289.491 245.095 267.015 269.374 227.088L269.496 226.887L269.303 226.753L228.167 198.133L227.953 197.984L227.813 198.204C210.395 225.614 182.86 240.173 149.144 240.173C121.323 240.173 98.1531 230.093 81.9368 212.47C65.7188 194.845 56.4382 169.656 56.4382 139.41C56.4382 109.163 65.7189 83.835 81.9375 66.071C98.1542 48.3091 121.324 38.0909 149.144 38.0909C182.88 38.0909 210.395 53.2038 227.815 80.0621L227.954 80.2768L228.165 80.1325L269.301 52.0681Z" fill="white" fill-opacity="0.1" stroke="white" stroke-width="0.5"/>
</svg>
