<svg width="41" height="41" viewBox="0 0 41 41" fill="none" xmlns="http://www.w3.org/2000/svg">
    <g clipPath="url(#clip0_147_14091)">
        <path d="M7.08459 23.7176V18.6356C7.08459 15.0413 8.5124 11.5943 11.0539 9.05281C13.5954 6.5113 17.0424 5.0835 20.6367 5.0835C24.2309 5.0835 27.6779 6.5113 30.2194 9.05281C32.761 11.5943 34.1888 15.0413 34.1888 18.6356V23.7176" stroke="#1E1E1E" strokeWidth="2.54102" strokeLinecapp="round" strokeLinejoin="round" />
        <path d="M30.8008 32.1877C30.8008 34.9947 26.2507 37.2698 20.6367 37.2698" stroke="#1E1E1E" strokeWidth="2.54102" strokeLinecapp="round" strokeLinejoin="round" />
        <path d="M7.08459 23.7176C7.08459 22.8191 7.44155 21.9573 8.07692 21.3219C8.7123 20.6865 9.57406 20.3296 10.4726 20.3296H12.1666C13.0652 20.3296 13.9269 20.6865 14.5623 21.3219C15.1977 21.9573 15.5546 22.8191 15.5546 23.7176V28.7996C15.5546 29.6982 15.1977 30.56 14.5623 31.1953C13.9269 31.8307 13.0652 32.1877 12.1666 32.1877H10.4726C9.57406 32.1877 8.7123 31.8307 8.07692 31.1953C7.44155 30.56 7.08459 29.6982 7.08459 28.7996V23.7176Z" stroke="#1E1E1E" strokeWidth="2.54102" strokeLinecapp="round" strokeLinejoin="round" />
        <path d="M25.7188 23.7176C25.7188 22.8191 26.0757 21.9573 26.7111 21.3219C27.3465 20.6865 28.2082 20.3296 29.1068 20.3296H30.8008C31.6993 20.3296 32.5611 20.6865 33.1965 21.3219C33.8318 21.9573 34.1888 22.8191 34.1888 23.7176V28.7996C34.1888 29.6982 33.8318 30.56 33.1965 31.1953C32.5611 31.8307 31.6993 32.1877 30.8008 32.1877H29.1068C28.2082 32.1877 27.3465 31.8307 26.7111 31.1953C26.0757 30.56 25.7188 29.6982 25.7188 28.7996V23.7176Z" stroke="#1E1E1E" strokeWidth="2.54102" strokeLinecapp="round" strokeLinejoin="round" />
    </g>
    <defs>
        <clipPath id="clip0_147_14091">
            <rect width="40.6562" height="40.6562" fill="white" transform="translate(0.308594 0.00146484)" />
        </clipPath>
    </defs>
</svg>