<svg width="196" height="30" viewBox="0 0 196 30" fill="none" xmlns="http://www.w3.org/2000/svg">
    <g clip-path="url(#clip0_1_65)">
        <path
            d="M32.7541 13.4996H27.3349C27.1199 13.4996 26.9788 13.273 27.0759 13.0811L29.7832 7.66187C29.8919 7.44686 30.1994 7.44686 30.3081 7.66187L33.0154 13.0811C33.1125 13.273 32.9714 13.4996 32.7564 13.4996H32.7541Z"
            fill="#1E1E1E" />
        <path
            d="M32.7541 16.5005H27.3349C27.1199 16.5005 26.9788 16.7271 27.0759 16.919L29.7832 22.3382C29.8919 22.5532 30.1994 22.5532 30.3081 22.3382L33.0154 16.919C33.1125 16.7271 32.9714 16.5005 32.7564 16.5005H32.7541Z"
            fill="#1E1E1E" />
        <path
            d="M14.7347 0C19.9505 0 24.3248 2.29809 26.7338 6.2816L22.6393 9.08601C20.9007 6.39488 18.1541 4.88055 14.7879 4.88055C9.2369 4.88055 5.53545 8.97503 5.53545 15.0301C5.53545 21.0851 9.2369 25.1241 14.7879 25.1241C18.1518 25.1241 20.9007 23.6652 22.6393 20.9186L26.7338 23.7785C24.3224 27.7597 19.9482 30.0023 14.7347 30.0023C6.04177 30 0.0422363 23.6652 0.0422363 15.0277C0.0422363 6.39026 6.04177 0 14.7347 0Z"
            fill="#1E1E1E" />
        <path
            d="M53.6128 5.96275C56.653 5.96275 59.2054 7.30369 60.6111 9.6249L58.2229 11.2595C57.2102 9.68963 55.6057 8.80647 53.6452 8.80647C50.4084 8.80647 48.2491 11.1947 48.2491 14.7251C48.2491 18.2554 50.4084 20.6113 53.6452 20.6113C55.608 20.6113 57.2102 19.7605 58.2229 18.1583L60.6111 19.8253C59.2054 22.1465 56.653 23.455 53.6128 23.455C48.5427 23.455 45.0447 19.7605 45.0447 14.7228C45.0447 9.68501 48.545 5.95813 53.6128 5.95813V5.96275Z"
            fill="#1E1E1E" />
        <path
            d="M70.9711 5.96265C76.0736 5.96265 79.5392 9.95309 79.5392 14.7273C79.5392 19.5015 76.0736 23.4596 70.9711 23.4596C65.8686 23.4596 62.3706 19.5339 62.3706 14.7273C62.3706 9.92072 65.8039 5.96265 70.9711 5.96265ZM70.9711 8.80867C69.3689 8.80867 68.0603 9.36585 67.0454 10.4756C66.0651 11.5553 65.5727 12.9933 65.5727 14.7273C65.5727 16.4613 66.0628 17.8669 67.0454 18.979C68.0603 20.0587 69.3666 20.6135 70.9711 20.6135C72.5756 20.6135 73.8819 20.0564 74.8621 18.979C75.8424 17.8669 76.3348 16.4613 76.3348 14.7273C76.3348 11.227 74.2078 8.80867 70.9711 8.80867Z"
            fill="#1E1E1E" />
        <path
            d="M97.0015 23.0018H93.9265V13.0927C93.9265 10.1172 92.7821 8.80867 90.2968 8.80867C87.4507 8.80867 85.4555 10.5103 85.4555 13.2245V23.0018H82.3806V6.42041H85.4555V9.13466C86.4034 7.13943 88.4981 5.96265 91.1129 5.96265C94.8074 5.96265 96.9991 8.28385 96.9991 12.339V22.9995L97.0015 23.0018Z"
            fill="#1E1E1E" />
        <path
            d="M115.471 6.42029L108.799 23.0017H105.495L98.8577 6.42029H102.129L107.165 19.6331L112.168 6.42029H115.471Z"
            fill="#1E1E1E" />
        <path
            d="M119.525 15.6428C119.885 18.8148 121.945 20.6783 125.052 20.6783C127.112 20.6783 128.846 19.8598 130.187 18.2253L132.183 19.9916C130.58 22.2157 128.03 23.4572 124.988 23.4572C119.885 23.4572 116.387 19.8922 116.387 14.7573C116.387 9.62247 119.853 5.96033 124.726 5.96033C129.336 5.96033 132.64 9.29649 132.64 14.1678C132.64 14.6579 132.608 15.1481 132.543 15.6405H119.527L119.525 15.6428ZM129.531 13.2869C129.269 10.4085 127.438 8.77398 124.724 8.77398C122.01 8.77398 120.079 10.4409 119.589 13.2869H129.531Z"
            fill="#1E1E1E" />
        <path
            d="M145 9.16692C144.542 9.06982 144.02 9.03514 143.462 9.03514C140.29 9.03514 138.524 10.8338 138.524 14.5954V22.9994H135.449V6.42031H138.524V9.3958C139.31 7.33585 141.141 6.15906 143.527 6.15906C144.084 6.15906 144.575 6.22379 145 6.38794V9.16692Z"
            fill="#1E1E1E" />
        <path
            d="M150.218 9.06977H146.947V6.42026H150.218V1.51428H153.293V6.42026H158.363V9.06977H153.293V18.2922C153.293 19.8944 154.044 20.5487 155.878 20.5487C156.629 20.5487 157.48 20.4516 158.428 20.255V22.8375C157.48 23.1311 156.465 23.2629 155.385 23.2629C151.952 23.2629 150.218 21.6931 150.218 18.5858V9.06977Z"
            fill="#1E1E1E" />
        <path
            d="M175.465 23.0018H172.39V13.0927C172.39 10.1172 171.245 8.80867 168.76 8.80867C165.914 8.80867 163.921 10.5103 163.921 13.2245V23.0018H160.846V6.42041H163.921V9.13466C164.869 7.13943 166.964 5.96265 169.578 5.96265C173.273 5.96265 175.465 8.28385 175.465 12.339V22.9995V23.0018Z"
            fill="#1E1E1E" />
        <path
            d="M195.958 6.4203V21.1036C195.958 26.828 192.786 30 187.258 30C184.118 30 181.372 28.9873 179.67 27.2857L181.337 25.0293C182.874 26.3702 184.967 27.1886 187.191 27.1886C190.853 27.1886 192.881 25.1287 192.881 21.1059V19.6678C191.933 21.7278 189.644 22.9716 186.895 22.9716C182.382 22.9716 179.046 19.4713 179.046 14.4682C179.046 9.46515 182.382 5.96484 186.895 5.96484C189.609 5.96484 191.93 7.27341 192.881 9.33337V6.42261H195.956L195.958 6.4203ZM191.542 10.4107C190.562 9.33106 189.253 8.80856 187.651 8.80856C186.049 8.80856 184.74 9.33106 183.725 10.4107C182.745 11.4581 182.253 12.799 182.253 14.4659C182.253 17.8344 184.412 20.1557 187.649 20.1557C189.251 20.1557 190.559 19.6332 191.54 18.5535C192.52 17.4738 193.012 16.1328 193.012 14.4659C193.012 12.799 192.522 11.4581 191.54 10.4107H191.542Z"
            fill="#1E1E1E" />
    </g>
    <defs>
        <clipPath id="clip0_1_65">
            <rect width="195.916" height="30" fill="white" transform="translate(0.0422363)" />
        </clipPath>
    </defs>
</svg>
    