<svg width="41" height="41" viewBox="0 0 41 41" fill="none" xmlns="http://www.w3.org/2000/svg">
    <g clipPath="url(#clip0_147_14083)">
        <path d="M20.498 5.0835C24.4549 8.5843 29.6193 10.407 34.8971 10.1655C35.6655 12.7794 35.9006 15.5211 35.5884 18.2276C35.2763 20.9342 34.4233 23.5504 33.0801 25.9207C31.7369 28.2911 29.9309 30.3673 27.7695 32.0259C25.608 33.6845 23.1352 34.8916 20.498 35.5757C17.8608 34.8916 15.388 33.6845 13.2265 32.0259C11.0651 30.3673 9.25909 28.2911 7.91589 25.9207C6.57268 23.5504 5.71967 20.9342 5.40753 18.2276C5.0954 15.5211 5.33051 12.7794 6.0989 10.1655C11.3766 10.407 16.5411 8.5843 20.498 5.0835Z" stroke="#1E1E1E" strokeWidth="2.54102" strokeLinecapp="round" strokeLinejoin="round" />
        <path d="M18.8059 18.6357C18.8059 19.0849 18.9844 19.5158 19.3021 19.8335C19.6198 20.1512 20.0506 20.3297 20.4999 20.3297C20.9492 20.3297 21.3801 20.1512 21.6978 19.8335C22.0155 19.5158 22.1939 19.0849 22.1939 18.6357C22.1939 18.1864 22.0155 17.7555 21.6978 17.4378C21.3801 17.1201 20.9492 16.9417 20.4999 16.9417C20.0506 16.9417 19.6198 17.1201 19.3021 17.4378C18.9844 17.7555 18.8059 18.1864 18.8059 18.6357Z" stroke="#1E1E1E" strokeWidth="2.54102" strokeLinecapp="round" strokeLinejoin="round" />
        <path d="M20.5 20.3296V24.5646" stroke="#1E1E1E" strokeWidth="2.54102" strokeLinecapp="round" strokeLinejoin="round" />
    </g>
    <defs>
        <clipPath id="clip0_147_14083">
            <rect width="40.6562" height="40.6562" fill="white" transform="translate(0.171875 0.00146484)" />
        </clipPath>
    </defs>
</svg>